<?xml version="1.0" encoding="UTF-8"?>
<!DOCTYPE svg PUBLIC "-//W3C//DTD SVG 1.1//EN" "http://www.w3.org/Graphics/SVG/1.1/DTD/svg11.dtd">
<!-- Creator: CorelDRAW X7 -->
<svg xmlns="http://www.w3.org/2000/svg" xml:space="preserve" width="167.909mm" height="69.9618mm" version="1.1" style="shape-rendering:geometricPrecision; text-rendering:geometricPrecision; image-rendering:optimizeQuality; fill-rule:evenodd; clip-rule:evenodd"
viewBox="0 0 16791 6996"
 xmlns:xlink="http://www.w3.org/1999/xlink">
 <defs>
  <style type="text/css">
   <![CDATA[
    .fil3 {fill:#FDE404}
    .fil1 {fill:#FEFEFE;fill-rule:nonzero}
    .fil0 {fill:#F7AB05;fill-rule:nonzero}
    .fil2 {fill:url(#id0);fill-rule:nonzero}
   ]]>
  </style>
  <linearGradient id="id0" gradientUnits="userSpaceOnUse" x1="13183" y1="2371.04" x2="14531.3" y2="1022.83">
   <stop offset="0" style="stop-opacity:1; stop-color:#F7AB05"/>
   <stop offset="1" style="stop-opacity:1; stop-color:#DDB104"/>
  </linearGradient>
 </defs>
 <g id="Layer_x0020_1">
  <metadata id="CorelCorpID_0Corel-Layer"/>
  <g id="_344105872">
   <g>
    <path class="fil0" d="M10607 6861l0 -364 -376 0 0 132 226 0 0 164c-27,20 -59,35 -95,48 -37,12 -76,18 -119,18 -45,0 -86,-8 -123,-24 -36,-16 -68,-37 -94,-65 -27,-28 -47,-61 -62,-99 -14,-38 -21,-79 -21,-124 0,-42 7,-82 22,-119 15,-38 35,-70 61,-98 25,-28 56,-51 90,-67 35,-16 73,-24 114,-24 27,0 53,2 76,7 23,4 44,11 64,18 19,8 38,18 55,30 18,11 35,24 52,38l99 -115c-23,-19 -46,-36 -70,-50 -24,-15 -50,-27 -77,-37 -27,-10 -56,-18 -88,-23 -31,-5 -66,-8 -105,-8 -67,0 -128,12 -184,36 -56,24 -104,56 -145,97 -40,41 -71,89 -94,143 -22,55 -33,113 -33,174 0,63 11,123 33,177 22,55 53,102 93,142 40,40 88,71 144,94 57,23 119,34 188,34 39,0 76,-3 112,-10 35,-7 68,-17 99,-29 30,-13 59,-27 86,-44 26,-16 50,-34 72,-52zm1088 -315c0,-61 -12,-119 -34,-173 -23,-55 -55,-102 -95,-143 -41,-40 -89,-72 -145,-96 -57,-23 -119,-35 -187,-35 -68,0 -131,12 -187,36 -57,24 -105,56 -147,97 -41,41 -73,89 -96,143 -22,55 -34,113 -34,174 0,61 12,119 34,173 23,55 55,102 95,143 40,40 89,72 145,96 57,23 119,35 187,35 68,0 131,-12 187,-36 57,-24 105,-56 147,-97 41,-41 73,-89 96,-143 22,-55 34,-112 34,-174zm-163 3c0,42 -8,82 -22,119 -15,38 -35,71 -62,98 -26,28 -57,50 -94,66 -36,16 -76,24 -120,24 -44,0 -84,-8 -122,-25 -37,-16 -68,-38 -95,-67 -26,-28 -47,-60 -62,-98 -15,-38 -22,-77 -22,-120 0,-42 7,-82 22,-119 15,-38 35,-70 61,-98 27,-28 58,-50 95,-66 36,-16 76,-24 120,-24 44,0 84,8 121,25 38,16 69,39 96,67 26,28 47,61 62,98 14,38 22,78 22,120zm351 432l619 0 0 -137 -465 0 0 -730 -154 0 0 867zm1581 -435c0,-61 -11,-118 -34,-171 -22,-52 -55,-98 -96,-137 -42,-39 -92,-69 -149,-91 -58,-22 -121,-33 -191,-33l-329 0 0 867 329 0c70,0 133,-11 191,-33 57,-22 107,-53 149,-92 41,-39 74,-85 96,-138 23,-53 34,-110 34,-172zm-163 3c0,43 -7,83 -22,119 -14,36 -35,67 -62,93 -26,26 -59,46 -97,61 -38,15 -80,22 -126,22l-175 0 0 -593 175 0c46,0 88,8 126,23 38,15 71,35 97,62 27,27 48,58 62,94 15,36 22,76 22,119z"/>
    <g>
     <path class="fil1" d="M1849 2070c511,0 973,203 1308,532 305,299 504,702 536,1151l5 0 0 131 0 1810 -477 0 0 -593c-21,22 -42,44 -64,66 -335,328 -797,531 -1308,531 -510,0 -973,-203 -1307,-531 -335,-328 -542,-782 -542,-1283 0,-501 207,-954 542,-1282 334,-329 797,-532 1307,-532zm5809 2044l0 0 0 44 0 0c-12,484 -216,920 -541,1239 -335,328 -797,531 -1308,531 -510,0 -973,-203 -1307,-531 -327,-321 -532,-761 -541,-1248l-1 0 0 -35 0 -361 478 0 0 361c0,372 153,708 401,952 248,243 591,394 970,394 379,0 722,-151 970,-394 248,-244 402,-580 402,-952l0 0 0 -1580 477 0 0 1580zm740 -1212c21,-23 42,-45 64,-66 335,-329 797,-532 1307,-532l0 0 0 469 0 0c-378,0 -721,150 -970,394 -248,243 -401,580 -401,951l0 0 0 1580 -478 0 0 -3164 478 0 0 368zm5067 846l0 132 0 1810 -478 0 0 -594c-21,23 -42,45 -64,67 -335,328 -797,531 -1308,531 -510,0 -972,-203 -1307,-531 -335,-329 -542,-782 -542,-1283 0,-501 207,-954 542,-1283 335,-328 797,-531 1307,-531 511,0 973,203 1308,531 305,300 504,703 537,1151l5 0zm-880 -820c-248,-243 -591,-394 -970,-394 -378,0 -721,151 -970,394 -248,244 -401,580 -401,952 0,372 153,708 401,952 249,243 592,394 970,394 379,0 722,-151 970,-394 249,-244 402,-580 402,-952 0,-372 -153,-708 -402,-952zm-9766 5c-248,-244 -591,-394 -970,-394 -379,0 -722,150 -970,394 -248,243 -402,580 -402,951 0,372 154,708 402,952 248,243 591,394 970,394 379,0 722,-151 970,-394 248,-244 402,-580 402,-952 0,-371 -154,-708 -402,-951z"/>
     <path class="fil1" d="M1849 2070c511,0 973,203 1308,532 305,299 504,702 536,1151l5 0 0 131 0 1810 -477 0 0 -593c-21,22 -42,44 -64,66 -335,328 -797,531 -1308,531 -510,0 -973,-203 -1307,-531 -335,-328 -542,-782 -542,-1283 0,-501 207,-954 542,-1282 334,-329 797,-532 1307,-532zm5809 2044l0 0 0 44 0 0c-12,484 -216,920 -541,1239 -335,328 -797,531 -1308,531 -510,0 -973,-203 -1307,-531 -327,-321 -532,-761 -541,-1248l-1 0 0 -35 0 -1575 478 0 0 1575c0,372 153,708 401,952 248,243 591,394 970,394 379,0 722,-151 970,-394 248,-244 402,-580 402,-952l0 0 0 -1580 477 0 0 1580zm740 -1212c21,-23 42,-45 64,-66 335,-329 797,-532 1307,-532l0 0 0 469 0 0c-378,0 -721,150 -970,394 -248,243 -401,580 -401,951l0 0 0 1580 -478 0 0 -3164 478 0 0 368zm5067 1248l0 1540 -478 0 0 -594c-21,23 -42,45 -64,67 -335,328 -797,531 -1308,531 -510,0 -972,-203 -1307,-531 -335,-329 -542,-782 -542,-1283 0,-501 207,-954 542,-1283 270,-265 624,-449 1020,-509l0 476c-264,55 -499,184 -683,364 -248,244 -401,580 -401,952 0,372 153,708 401,952 249,243 592,394 970,394 379,0 722,-151 970,-394 187,-183 320,-419 375,-682l505 0zm-10646 -1217c-248,-244 -591,-394 -970,-394 -379,0 -722,150 -970,394 -248,243 -402,580 -402,951 0,372 154,708 402,952 248,243 591,394 970,394 379,0 722,-151 970,-394 248,-244 402,-580 402,-952 0,-371 -154,-708 -402,-951z"/>
    </g>
    <g>
     <path class="fil2" d="M13911 2480c92,-166 207,-318 342,-450 134,-132 288,-245 457,-334l0 0c267,146 555,227 821,234l0 1c-367,28 -697,186 -944,427 -270,266 -438,632 -440,1035l-472 1 0 -3 0 -1c-2,-402 -170,-767 -440,-1032 -270,-265 -642,-429 -1052,-432l0 -462c410,-3 782,-168 1052,-433 270,-265 438,-629 440,-1031l0 0c3,277 237,912 236,910 -91,166 -207,317 -342,450 -134,132 -289,245 -458,335 169,89 324,203 458,335 135,132 251,284 342,450z"/>
     <path class="fil3" d="M13911 910c167,301 409,542 678,714 0,1 1,1 1,1 39,24 80,48 122,70 -1,0 -2,0 -2,1 267,146 555,228 821,235 35,-3 71,-5 108,-5l1 -462 -1 0c-410,-3 -781,-168 -1052,-433 -270,-265 -438,-629 -440,-1031l-472 0c3,344 92,649 236,910z"/>
    </g>
   </g>
   <path class="fil1" d="M16075 1927l0 -408 -152 0 0 -54 365 0 0 54 -152 0 0 408 -61 0zm275 0l0 -462 92 0 109 327c10,30 18,53 22,68 5,-17 14,-42 25,-74l111 -321 82 0 0 462 -59 0 0 -387 -135 387 -55 0 -133 -394 0 394 -59 0z"/>
  </g>
 </g>
</svg>
